<?xml version="1.0" encoding="UTF-8"?>
<!DOCTYPE svg PUBLIC "-//W3C//DTD SVG 1.1//EN" "http://www.w3.org/Graphics/SVG/1.1/DTD/svg11.dtd">
<!-- Creator: CorelDRAW X7 -->
<svg xmlns="http://www.w3.org/2000/svg" xml:space="preserve" width="8.84882in" height="6.04656in" version="1.1" style="shape-rendering:geometricPrecision; text-rendering:geometricPrecision; image-rendering:optimizeQuality; fill-rule:evenodd; clip-rule:evenodd"
viewBox="0 0 9417 6435"
 xmlns:xlink="http://www.w3.org/1999/xlink">
 <defs>
  <style type="text/css">
   <![CDATA[
    .fil2 {fill:#373435;fill-rule:nonzero}
    .fil0 {fill:#6B5234;fill-rule:nonzero}
    .fil1 {fill:#FFA100;fill-rule:nonzero}
   ]]>
  </style>
 </defs>
 <g id="Layer_x0020_1">
  <metadata id="CorelCorpID_0Corel-Layer"/>
  <g id="_1786390399072">
   <g>
    <path class="fil0" d="M9136 3674c-145,352 -294,607 -447,776 -184,202 -482,244 -877,244 -291,0 -588,-13 -728,-74 -163,-72 -192,-270 -192,-643l0 -1317 544 0c670,0 782,33 882,591l282 0 0 -1576 -282 0c-100,540 -212,587 -882,587l-544 0 0 -1646c0,-254 22,-270 330,-270l404 0c422,0 634,58 775,196 141,137 257,407 326,677l286 -36c-31,-504 -69,-1044 -74,-1181l-6526 0c-59,-1 -120,-2 -184,-2l-2198 0 0 272c577,47 657,137 657,760l0 2968c0,638 -99,707 -688,770l0 272 2389 0 0 -272c-600,-63 -679,-132 -679,-770l0 -1121 153 0c254,0 403,95 535,325 233,414 442,827 648,1148 561,850 1103,690 1929,690l4161 0c64,-232 228,-947 281,-1304l-281 -64zm-7426 -1099l0 -1900c0,-153 14,-239 68,-286 58,-49 165,-85 372,-85 451,0 940,303 940,1134 0,393 -111,695 -383,931 -175,154 -456,206 -802,206l-195 0z"/>
    <g>
     <path class="fil1" d="M6928 4415c-23,-88 -32,-202 -35,-346 -402,111 -473,26 -717,-497l-1328 -2850c-402,344 -923,713 -1427,1025l116 249c448,-129 518,-128 783,442l765 1642c285,612 252,674 -219,963 36,-1 72,-1 109,-1l607 0 1346 -627z"/>
     <path class="fil1" d="M4510 2l-1260 0c-62,160 -63,345 18,518 148,318 554,461 872,312 339,-157 482,-522 370,-830z"/>
    </g>
    <path class="fil0" d="M428 5913c0,123 -20,212 -59,266 -39,54 -103,81 -191,81l-178 0 0 -676 188 0c75,0 130,18 165,55 50,50 75,142 75,274zm-89 4c0,-104 -15,-176 -45,-215 -25,-33 -67,-50 -127,-50l-82 0 0 540 76 0c59,0 102,-17 128,-50 33,-42 50,-117 50,-225zm573 99l-273 0c0,71 7,121 23,151 15,29 40,44 75,44 29,0 52,-11 67,-32 15,-22 23,-50 23,-85l81 0c0,48 -14,88 -42,122 -33,38 -78,58 -134,58 -61,0 -106,-21 -135,-63 -29,-42 -44,-110 -44,-206 0,-177 62,-266 187,-266 64,0 109,22 136,65 27,43 39,114 36,212zm-85 -63c0,-57 -8,-97 -24,-121 -15,-20 -36,-30 -65,-30 -64,0 -96,50 -96,151l185 0zm548 -201l-140 508 -93 0 -141 -508 89 0 98 410 1 0 97 -410 89 0zm448 264l-274 0c0,71 8,121 24,151 15,29 40,44 74,44 30,0 53,-11 68,-32 15,-22 22,-50 22,-85l82 0c0,48 -14,88 -43,122 -33,38 -77,58 -134,58 -60,0 -105,-21 -134,-63 -29,-42 -44,-110 -44,-206 0,-177 62,-266 186,-266 64,0 110,22 136,65 27,43 39,114 37,212zm-86 -63c0,-57 -8,-97 -24,-121 -14,-20 -36,-30 -65,-30 -64,0 -96,50 -96,151l185 0zm305 307l-81 0 0 -676 81 0 0 676zm503 -248c0,174 -63,262 -189,262 -123,0 -185,-88 -185,-262 0,-182 62,-273 185,-273 126,0 189,91 189,273zm-85 0c0,-77 -9,-132 -26,-165 -16,-30 -42,-45 -78,-45 -33,0 -57,14 -72,43 -19,34 -28,89 -28,167 0,133 34,199 100,199 69,0 104,-66 104,-199zm572 -6c0,83 -17,149 -52,199 -31,46 -67,69 -109,69 -36,0 -66,-10 -88,-31 -15,-12 -26,-27 -32,-44l0 0 0 228 -81 0 0 -675 78 0 0 67 0 0c22,-53 63,-80 123,-80 107,0 161,89 161,267zm-86 0c0,-76 -8,-128 -26,-156 -13,-21 -34,-31 -64,-31 -37,0 -63,11 -79,32 -19,28 -29,80 -29,155 0,133 36,199 108,199 29,0 51,-13 65,-38 17,-31 25,-85 25,-161zm303 -331l-81 0 0 -91 81 0 0 91zm0 585l-81 0 0 -508 81 0 0 508zm497 0l-82 0 0 -359c0,-62 -25,-94 -77,-94 -25,0 -47,8 -67,24 -24,18 -35,42 -35,72l0 357 -82 0 0 -508 78 0 0 62 0 0c9,-21 25,-38 46,-52 25,-15 52,-23 82,-23 91,0 137,48 137,143l0 378zm493 -56c0,92 -19,156 -56,192 -27,26 -69,39 -126,39 -53,0 -94,-14 -125,-41 -27,-23 -40,-52 -40,-86l81 0c0,19 8,35 23,47 16,11 36,17 61,17 31,0 54,-6 68,-17 22,-17 32,-48 32,-94l0 -70c-1,0 -2,0 -2,0 -19,46 -60,68 -123,68 -53,0 -93,-24 -119,-74 -24,-44 -36,-105 -36,-184 0,-79 13,-142 40,-188 29,-49 71,-74 124,-74 58,0 98,26 120,79l0 0 0 -66 78 0 0 452zm-78 -205c0,-128 -34,-192 -103,-192 -64,0 -96,64 -96,192 0,128 31,192 93,192 39,0 66,-16 82,-47 16,-30 24,-78 24,-145zm831 261l-369 0 0 -676 358 0 0 74 -272 0 0 212 257 0 0 74 -257 0 0 242 283 0 0 74zm463 0l-82 0 0 -359c0,-62 -25,-94 -76,-94 -25,0 -48,8 -68,24 -23,18 -35,42 -35,72l0 357 -81 0 0 -508 77 0 0 62 0 0c10,-21 26,-38 47,-52 24,-15 51,-23 82,-23 91,0 136,48 136,143l0 378zm493 -56c0,92 -18,156 -55,192 -27,26 -69,39 -126,39 -53,0 -95,-14 -125,-41 -28,-23 -41,-52 -41,-86l81 0c0,19 8,35 24,47 15,11 36,17 61,17 31,0 53,-6 68,-17 21,-17 32,-48 32,-94l0 -70c-2,0 -2,0 -2,0 -20,46 -61,68 -123,68 -53,0 -93,-24 -120,-74 -24,-44 -36,-105 -36,-184 0,-79 14,-142 40,-188 29,-49 71,-74 125,-74 57,0 97,26 120,79l0 0 0 -66 77 0 0 452zm-77 -205c0,-128 -35,-192 -104,-192 -63,0 -95,64 -95,192 0,128 31,192 92,192 39,0 66,-16 82,-47 16,-30 25,-78 25,-145zm313 261l-81 0 0 -676 81 0 0 676zm241 -585l-81 0 0 -91 81 0 0 91zm0 585l-81 0 0 -508 81 0 0 508zm471 -141c0,51 -17,91 -50,119 -30,24 -68,36 -115,36 -121,0 -181,-60 -181,-180l81 0c0,78 32,117 95,117 24,0 44,-6 60,-18 19,-15 29,-37 29,-66 0,-31 -13,-54 -39,-69 -14,-9 -47,-22 -99,-38 -39,-12 -67,-27 -84,-46 -22,-23 -33,-54 -33,-93 0,-43 14,-77 44,-103 29,-26 69,-39 120,-39 54,0 95,13 121,39 26,25 39,66 39,123l-82 0c0,-38 -7,-65 -21,-80 -12,-13 -31,-19 -57,-19 -55,0 -83,25 -83,76 0,24 9,42 27,54 12,9 37,19 75,31 53,17 86,30 100,40 35,24 53,63 53,116zm463 141l-81 0 0 -354c0,-66 -26,-99 -78,-99 -25,0 -47,8 -65,23 -24,20 -37,49 -37,89l0 341 -81 0 0 -676 81 0 0 228 1 0c6,-16 21,-32 44,-47 26,-17 54,-26 82,-26 46,0 80,12 102,36 21,24 32,64 32,121l0 364zm784 -184c0,62 -19,111 -57,145 -38,35 -94,53 -168,53 -67,0 -117,-18 -150,-54 -33,-36 -49,-93 -49,-172l85 0c0,57 10,97 29,121 19,24 51,36 95,36 32,0 59,-8 82,-24 29,-21 44,-53 44,-95 0,-44 -18,-77 -54,-100 -13,-8 -52,-23 -118,-46 -51,-18 -87,-38 -110,-60 -30,-29 -45,-68 -45,-119 0,-62 19,-110 57,-144 34,-31 80,-47 136,-47 136,0 204,63 204,189l-85 0c0,-49 -12,-82 -36,-100 -17,-14 -44,-20 -80,-20 -33,0 -59,9 -78,29 -19,19 -28,45 -28,78 0,37 12,66 36,88 18,16 47,30 89,44 28,9 57,18 85,28 36,14 62,33 81,56 23,29 35,67 35,114zm514 184l-94 0 -145 -251 -67 80 0 171 -81 0 0 -676 81 0 0 403 1 0 184 -235 95 0 -158 192 184 316zm174 -585l-81 0 0 -91 81 0 0 91zm0 585l-81 0 0 -508 81 0 0 508zm241 0l-81 0 0 -676 81 0 0 676zm241 0l-81 0 0 -676 81 0 0 676z"/>
   </g>
   <path class="fil2" d="M4837 1384l-252 149 80 147c20,38 40,60 57,66 24,9 55,3 92,-17l10 19 -223 131 -9 -18c28,-23 46,-39 52,-49 8,-13 11,-27 10,-44 -1,-18 -9,-40 -24,-68l-80 -146 -210 124c-28,17 -45,28 -49,34 -5,7 -8,14 -8,23 0,9 5,22 15,40l61 113c21,38 38,63 52,77 15,14 34,25 57,32 30,8 71,12 121,10l11 20 -191 37 -278 -513 17 -10 13 23c8,16 20,29 35,39 11,7 22,10 34,8 12,-2 34,-13 65,-31l415 -246c40,-24 63,-42 68,-56 6,-20 1,-43 -14,-71l-13 -23 18 -11 279 514 -137 90 -10 -19c30,-27 49,-48 57,-64 8,-16 11,-34 9,-54 -3,-16 -13,-41 -31,-74l-99 -182z"/>
   <path id="1" class="fil2" d="M4895 2098c89,17 146,49 172,97 13,24 19,49 16,73 -2,25 -13,50 -35,77 -15,18 -42,39 -80,62l-185 109c-27,16 -44,29 -51,39 -6,8 -9,18 -9,28 0,11 6,27 18,48l-18 11 -120 -222 17 -11 5 10c11,21 22,33 33,38 11,5 23,5 36,2 6,-2 21,-10 45,-24l177 -105c40,-24 66,-46 78,-67 12,-21 11,-44 -3,-69 -21,-39 -62,-65 -124,-79l-228 135c-29,17 -46,29 -51,37 -7,10 -10,20 -10,31 1,10 7,28 21,52l-18 11 -121 -223 18 -11 5 10c12,23 26,35 42,37 15,1 38,-7 70,-26l159 -94c52,-31 83,-51 93,-60 10,-9 15,-17 17,-25 1,-7 -1,-15 -5,-23 -5,-10 -14,-19 -25,-29l13 -18 127 105 11 21 -90 53z"/>
   <path id="2" class="fil2" d="M4966 2705c-2,-35 5,-67 20,-95 15,-29 36,-51 64,-67 43,-26 88,-30 137,-15 49,15 87,49 116,101 23,43 33,86 30,129l52 95c8,14 12,22 12,25 1,2 0,5 -1,7 -2,4 -7,8 -14,12 -8,5 -14,7 -18,7 -2,0 -4,-1 -7,-2 -2,-2 -7,-10 -14,-24l-32 -59c-13,32 -37,58 -72,79 -40,23 -83,28 -129,13 -45,-15 -83,-50 -112,-104 -12,-22 -21,-46 -28,-73 -19,-7 -35,-11 -47,-11 -12,1 -21,3 -27,6 -5,3 -9,9 -11,17 -2,9 0,22 6,39 4,10 15,33 34,70 35,69 56,114 64,136 13,32 15,63 7,92 -7,28 -24,50 -50,65 -35,21 -78,24 -128,7 -73,-24 -132,-77 -177,-159 -34,-63 -49,-124 -46,-183 3,-34 12,-56 29,-66 8,-5 16,-7 26,-8 14,-2 37,0 67,5 4,1 30,8 78,20 1,-23 3,-40 7,-51 3,-12 10,-20 20,-26 11,-7 27,-10 47,-9 19,0 52,9 97,27zm309 -71c-13,-24 -33,-38 -60,-44 -28,-5 -60,3 -98,26 -50,29 -82,63 -97,101 -11,29 -10,57 4,83 14,25 34,40 60,45 27,6 59,-3 97,-26 50,-29 82,-63 98,-102 12,-29 10,-56 -4,-83zm-469 160c-24,-6 -46,-9 -64,-9 -18,1 -32,4 -44,11 -15,9 -23,26 -24,52 -2,44 14,97 48,158 32,59 65,97 100,113 35,16 64,17 87,4 16,-10 23,-25 21,-46 -2,-21 -17,-57 -43,-108 -38,-74 -65,-133 -81,-175z"/>
   <path id="3" class="fil2" d="M5769 2940l-571 338c-27,16 -44,29 -50,38 -7,9 -10,19 -10,30 0,11 7,29 19,52l-17 10 -120 -220 18 -10c11,20 21,33 29,38 8,6 18,7 29,6 12,-1 31,-10 58,-25l391 -232c48,-29 77,-47 87,-56 10,-9 15,-17 17,-24 1,-8 -1,-15 -5,-23 -4,-9 -13,-18 -25,-28l13 -19 125 103 12 22z"/>
   <path id="4" class="fil2" d="M5899 3179c8,13 9,28 5,43 -4,15 -12,26 -25,34 -13,8 -27,10 -42,6 -15,-5 -26,-14 -33,-27 -8,-14 -9,-28 -5,-44 4,-15 13,-27 26,-35 13,-7 27,-9 41,-5 14,4 26,13 33,28zm-203 173l-347 205c-26,16 -43,29 -50,38 -6,9 -10,19 -10,30 0,10 6,27 18,48l-18 10 -118 -218 17 -10c12,22 22,35 30,40 8,5 18,7 30,6 12,-1 31,-9 57,-25l167 -99c46,-27 75,-46 87,-57 9,-9 14,-16 15,-24 2,-7 0,-15 -5,-23 -5,-9 -13,-19 -25,-29l14 -17 126 104 12 21z"/>
   <path id="5" class="fil2" d="M5921 3766l-147 86 -8 -16c39,-39 61,-74 67,-103 6,-29 1,-59 -15,-88 -12,-23 -28,-38 -47,-45 -20,-8 -36,-7 -50,1 -18,11 -30,25 -37,42 -7,18 -10,47 -7,86l5 92c5,84 -18,142 -68,172 -40,23 -79,26 -120,9 -41,-16 -72,-44 -92,-82 -15,-28 -28,-62 -38,-102 -3,-13 -6,-23 -10,-30 -4,-7 -11,-11 -21,-10l-9 -16 154 -92 9 17c-39,35 -63,72 -71,111 -8,39 -3,74 14,107 12,22 29,37 49,43 20,7 40,5 57,-5 22,-13 36,-32 42,-56 6,-25 7,-68 4,-128 -3,-61 0,-104 10,-130 10,-25 29,-45 56,-62 35,-21 72,-25 110,-14 37,11 67,37 89,77 9,17 17,41 24,71 4,19 7,31 10,37 3,5 7,9 11,10 3,2 10,2 20,2l9 16z"/>
   <path id="6" class="fil2" d="M6273 3866l-315 186c58,14 98,28 120,43 23,15 40,33 51,54 14,26 19,52 16,78 -4,26 -18,52 -42,78 -17,18 -52,43 -105,75l-152 90c-27,16 -45,29 -52,40 -6,8 -9,17 -9,27 0,10 5,26 17,47l-18 10 -119 -220 17 -10 6 10c11,21 22,33 33,38 10,5 22,5 36,1 5,-2 20,-10 44,-24l153 -90c47,-28 77,-49 89,-63 12,-14 18,-28 20,-44 1,-15 -3,-31 -11,-47 -9,-16 -22,-30 -40,-43 -17,-12 -45,-23 -83,-33l-228 135c-29,17 -47,30 -52,38 -5,7 -8,17 -8,29 1,12 7,30 19,53l-17 10 -121 -222 18 -10c11,20 22,33 34,41 7,5 16,7 26,5 11,-1 30,-9 57,-25l390 -231c48,-29 78,-48 88,-57 10,-9 15,-17 17,-25 1,-7 -1,-15 -5,-24 -4,-7 -13,-16 -26,-29l14 -17 125 103 13 23z"/>
  </g>
 </g>
</svg>
